<svg width="14" height="14" viewBox="0 0 14 14" fill="none" xmlns="http://www.w3.org/2000/svg">
<path d="M8.94922 0.291992C9.72239 0.292118 10.4639 0.598908 11.0107 1.14551L12.5605 2.69629C13.1074 3.24318 13.4149 3.98442 13.415 4.75781V7.875C13.415 9.48568 12.1096 10.7918 10.499 10.792H10.4844C10.3379 12.2657 9.09527 13.417 7.58301 13.417H4.08301C2.4722 13.417 1.16602 12.1108 1.16602 10.5V5.83301C1.16621 4.22236 2.47232 2.91701 4.08301 2.91699H4.0957C4.24188 1.44294 5.48651 0.291992 6.99902 0.291992H8.94922ZM4.08203 4.08301C3.11612 4.08356 2.3332 4.86701 2.33301 5.83301V10.5C2.33301 11.4665 3.11653 12.25 4.08301 12.25H7.58301C8.44991 12.25 9.16752 11.6193 9.30664 10.792H6.99902C5.38819 10.792 4.08203 9.48583 4.08203 7.875V4.08301ZM6.99902 1.45801C6.0395 1.45801 5.26119 2.23062 5.25 3.1875L5.24902 4.08301V7.875C5.24902 8.8415 6.03253 9.625 6.99902 9.625H10.499C11.4653 9.62476 12.249 8.84135 12.249 7.875V5.54199H9.92578C8.95311 5.54188 8.16687 4.74805 8.17578 3.77539L8.19727 1.45801H6.99902ZM9.34277 3.78613C9.3398 4.11031 9.60162 4.37489 9.92578 4.375H12.2061C12.134 4.05402 11.9726 3.75681 11.7363 3.52051L10.1865 1.9707C9.95799 1.74217 9.67215 1.58318 9.36328 1.50781L9.34277 3.78613Z" fill="#18171A"/>
</svg>
