<svg width="16" height="16" viewBox="0 0 16 16" fill="none" xmlns="http://www.w3.org/2000/svg">
<path d="M8 0.666626C8.36819 0.666626 8.66699 0.965428 8.66699 1.33362C8.66682 1.70166 8.36808 1.99963 8 1.99963H4C2.89569 1.99981 2.00018 2.89532 2 3.99963V11.9996C2 13.1041 2.89558 13.9995 4 13.9996H12C13.1046 13.9996 14 13.1042 14 11.9996V7.99963C14.0002 7.63159 14.2989 7.33362 14.667 7.33362C15.0351 7.33362 15.3338 7.63159 15.334 7.99963V11.9996C15.334 13.8406 13.8409 15.3336 12 15.3336H4C2.1592 15.3334 0.666992 13.8405 0.666992 11.9996V3.99963C0.667168 2.15894 2.15931 0.666802 4 0.666626H8ZM14.667 0.666626C15.0351 0.666688 15.334 0.965466 15.334 1.33362V4.53381C15.3337 4.90174 15.035 5.19977 14.667 5.19983C14.299 5.19983 14.0003 4.90178 14 4.53381V2.94299L9.13867 7.80432C8.87832 8.06467 8.45566 8.06467 8.19531 7.80432C7.93531 7.54397 7.93516 7.12219 8.19531 6.86194L13.0576 1.99963H11.4668C11.0987 1.99959 10.8 1.70165 10.7998 1.33362C10.7998 0.965456 11.0986 0.66667 11.4668 0.666626H14.667Z" fill="#18171A"/>
</svg>
