<svg width="188" height="36" viewBox="0 0 188 36" fill="none" xmlns="http://www.w3.org/2000/svg">
<g clip-path="url(#clip0_1836_74016)">
<path d="M30.3496 8.99939H33.0487L41.8179 21.7537V8.99939H44.7238V27.0009H42.0246L33.2554 14.2466V27.0009H30.3496V8.99939Z" fill="black"/>
<path d="M49.1598 14.5149C50.1277 13.9584 51.2388 13.6801 52.489 13.6801C53.7392 13.6801 54.8761 13.9365 55.844 14.4513C56.812 14.9661 57.5752 15.6955 58.1317 16.6356C58.6882 17.5778 58.9764 18.6848 58.9923 19.9529C58.9923 20.2968 58.9665 20.6486 58.9148 21.0083H48.9888V21.1633C49.0564 22.3122 49.4182 23.2205 50.0681 23.8883C50.72 24.5561 51.5846 24.892 52.6659 24.892C53.5225 24.892 54.242 24.6913 54.8264 24.2878C55.4087 23.8843 55.7943 23.3139 55.9831 22.5785H58.7598C58.5193 23.9161 57.8733 25.0133 56.8179 25.8699C55.7625 26.7266 54.4487 27.1559 52.8706 27.1559C51.4992 27.1559 50.3026 26.8776 49.283 26.3211C48.2634 25.7646 47.4743 24.9795 46.9178 23.9678C46.3613 22.9561 46.083 21.7835 46.083 20.4438C46.083 19.1042 46.3533 17.9017 46.892 16.8821C47.4326 15.8625 48.1859 15.0734 49.1558 14.5169L49.1598 14.5149ZM55.0231 16.7271C54.3792 16.1865 53.5702 15.9161 52.5923 15.9161C51.684 15.9161 50.8989 16.1944 50.239 16.7509C49.5792 17.3074 49.1975 18.0488 49.0942 18.975H56.166C56.0467 18.015 55.6651 17.2657 55.0211 16.7251L55.0231 16.7271Z" fill="black"/>
<path d="M61.8584 13.8333L64.8676 23.9142L67.8767 13.8333H70.4228L73.3028 23.9142L76.4154 13.8333H79.2437L74.873 26.999H71.8897L69.113 18.0509L66.233 26.999L63.2238 27.0248L58.9307 13.8333H61.8623H61.8584Z" fill="black"/>
<path d="M83.2132 10.1562V13.8333H86.4012V16.276H83.2132V23.1411C83.2132 23.6559 83.3165 24.0196 83.5212 24.2343C83.726 24.4489 84.0778 24.5562 84.5767 24.5562H86.6855V26.999H84.0102C82.758 26.999 81.8497 26.7068 81.2852 26.1244C80.7208 25.5421 80.4365 24.6417 80.4365 23.4233V10.1562H83.2132Z" fill="black"/>
<path d="M87.7391 23.952C87.1826 22.9323 86.9043 21.7537 86.9043 20.416C86.9043 19.0784 87.1826 17.9256 87.7391 16.906C88.2956 15.8864 89.0847 15.0933 90.1043 14.5269C91.1239 13.9624 92.2946 13.6782 93.6144 13.6782C94.9341 13.6782 96.1048 13.9604 97.1244 14.5269C98.1441 15.0913 98.9331 15.8844 99.4896 16.906C100.046 17.9256 100.324 19.0963 100.324 20.416C100.324 21.7358 100.046 22.9323 99.4896 23.952C98.9331 24.9716 98.1441 25.7606 97.1244 26.3172C96.1048 26.8737 94.9341 27.1519 93.6144 27.1519C92.2946 27.1519 91.1239 26.8737 90.1043 26.3172C89.0847 25.7606 88.2956 24.9716 87.7391 23.952ZM97.4981 20.418C97.4981 19.1321 97.1423 18.0826 96.4308 17.2677C95.7192 16.4528 94.7811 16.0454 93.6144 16.0454C92.4477 16.0454 91.5135 16.4528 90.8119 17.2677C90.1083 18.0826 89.7565 19.1321 89.7565 20.418C89.7565 21.704 90.1083 22.7534 90.8119 23.5683C91.5155 24.3833 92.4496 24.7907 93.6144 24.7907C94.7791 24.7907 95.7192 24.3833 96.4308 23.5683C97.1423 22.7534 97.4981 21.704 97.4981 20.418Z" fill="black"/>
<path d="M113.904 19.7482V27.0009H111.101V19.9032C111.101 18.651 110.837 17.699 110.304 17.0491C109.771 16.3971 108.992 16.0732 107.965 16.0732C106.868 16.0732 106.007 16.4548 105.381 17.218C104.755 17.9812 104.443 19.0307 104.443 20.3683V27.0028H101.666V13.8332H104.083L104.391 15.5564C105.387 14.3042 106.792 13.6801 108.609 13.6801C110.169 13.6801 111.443 14.1611 112.427 15.1211C113.413 16.0811 113.906 17.6235 113.906 19.7502L113.904 19.7482Z" fill="black"/>
<path fill-rule="evenodd" clip-rule="evenodd" d="M9.70935 6.25047C10.2857 5.91854 10.9953 5.91854 11.5717 6.25047L20.3508 11.3188C20.9272 11.6507 21.283 12.2669 21.283 12.9327V23.0713C21.283 23.7372 20.9272 24.3513 20.3508 24.6853L11.5717 29.7536C10.9953 30.0875 10.2857 30.0875 9.70935 29.7536L0.930221 24.6833C0.353823 24.3513 -0.00195312 23.7352 -0.00195312 23.0694V12.9307C-0.00195312 12.2649 0.353823 11.6507 0.930221 11.3168L9.70935 6.25047ZM10.3593 7.5742C10.4984 7.3337 10.8443 7.3337 10.9834 7.5742L19.8818 22.9879C20.0209 23.2284 19.848 23.5285 19.5697 23.5285H1.77295C1.49469 23.5285 1.32177 23.2284 1.4609 22.9879L10.3593 7.5742ZM15.1513 18.1183C15.1513 20.6226 13.122 22.652 10.6177 22.652C8.11333 22.652 6.08401 20.6226 6.08401 18.1183C6.08401 15.6139 8.11333 13.5846 10.6177 13.5846C13.122 13.5846 15.1513 15.6139 15.1513 18.1183ZM8.75134 16.564C8.75134 16.3911 8.89047 16.252 9.06339 16.252H12.172C12.3449 16.252 12.484 16.3911 12.484 16.564V19.6726C12.484 19.8455 12.3449 19.9846 12.172 19.9846H9.06339C8.89047 19.9846 8.75134 19.8455 8.75134 19.6726V16.564Z" fill="black"/>
</g>
<path d="M129.338 27H124.224V9.54545H129.645C131.31 9.54545 132.733 9.89205 133.915 10.5852C135.102 11.2784 136.011 12.2727 136.642 13.5682C137.273 14.8636 137.588 16.4176 137.588 18.2301C137.588 20.0597 137.264 21.6307 136.616 22.9432C135.974 24.25 135.037 25.2528 133.804 25.9517C132.577 26.6506 131.088 27 129.338 27ZM125.818 25.5682H129.244C130.744 25.5682 132 25.2727 133.011 24.6818C134.023 24.0909 134.781 23.2472 135.287 22.1506C135.793 21.054 136.045 19.7472 136.045 18.2301C136.04 16.7244 135.79 15.429 135.295 14.3438C134.807 13.2585 134.08 12.4261 133.114 11.8466C132.153 11.267 130.966 10.9773 129.551 10.9773H125.818V25.5682ZM146.428 27.2727C145.207 27.2727 144.15 26.9886 143.258 26.4205C142.366 25.8466 141.675 25.054 141.187 24.0426C140.704 23.0256 140.462 21.8551 140.462 20.5312C140.462 19.2131 140.704 18.0426 141.187 17.0199C141.675 15.9915 142.349 15.1875 143.207 14.608C144.07 14.0227 145.067 13.7301 146.198 13.7301C146.908 13.7301 147.593 13.8608 148.252 14.1222C148.911 14.3778 149.502 14.7727 150.025 15.3068C150.553 15.8352 150.971 16.5028 151.278 17.3097C151.585 18.1108 151.738 19.0597 151.738 20.1562V20.9062H141.511V19.5682H150.187C150.187 18.7273 150.016 17.9716 149.675 17.3011C149.34 16.625 148.871 16.0909 148.269 15.6989C147.673 15.3068 146.982 15.1108 146.198 15.1108C145.369 15.1108 144.638 15.3324 144.008 15.7756C143.377 16.2187 142.883 16.804 142.525 17.5312C142.173 18.2585 141.994 19.054 141.988 19.9176V20.7188C141.988 21.7585 142.167 22.6676 142.525 23.446C142.888 24.2187 143.403 24.8182 144.067 25.2443C144.732 25.6705 145.519 25.8835 146.428 25.8835C147.048 25.8835 147.59 25.7869 148.056 25.5938C148.528 25.4006 148.923 25.142 149.241 24.8182C149.565 24.4886 149.809 24.1278 149.974 23.7358L151.414 24.2045C151.215 24.7557 150.888 25.2642 150.434 25.7301C149.985 26.196 149.423 26.571 148.746 26.8551C148.076 27.1335 147.303 27.2727 146.428 27.2727ZM155.081 27V13.9091H156.555V15.9205H156.692C156.953 15.2443 157.388 14.7131 157.996 14.3267C158.609 13.9347 159.345 13.7386 160.203 13.7386C161.107 13.7386 161.848 13.9517 162.428 14.3778C163.013 14.7983 163.45 15.3778 163.74 16.1165H163.851C164.146 15.3892 164.626 14.8125 165.291 14.3864C165.962 13.9545 166.774 13.7386 167.729 13.7386C168.945 13.7386 169.905 14.1222 170.609 14.8892C171.314 15.6506 171.666 16.7642 171.666 18.2301V27H170.149V18.2301C170.149 17.196 169.885 16.4205 169.357 15.9034C168.828 15.3864 168.132 15.1278 167.268 15.1278C166.268 15.1278 165.499 15.4347 164.959 16.0483C164.419 16.6619 164.149 17.4403 164.149 18.3835V27H162.598V18.0938C162.598 17.2074 162.351 16.4915 161.857 15.946C161.362 15.4006 160.666 15.1278 159.768 15.1278C159.166 15.1278 158.624 15.2756 158.141 15.571C157.663 15.8665 157.286 16.2784 157.007 16.8068C156.734 17.3295 156.598 17.9318 156.598 18.6136V27H155.081ZM180.771 27.2727C179.64 27.2727 178.64 26.9858 177.771 26.4119C176.907 25.8381 176.231 25.0455 175.742 24.0341C175.254 23.017 175.009 21.8437 175.009 20.5142C175.009 19.1733 175.254 17.9943 175.742 16.9773C176.231 15.9545 176.907 15.1591 177.771 14.5909C178.64 14.017 179.64 13.7301 180.771 13.7301C181.901 13.7301 182.898 14.017 183.762 14.5909C184.626 15.1648 185.302 15.9602 185.79 16.9773C186.285 17.9943 186.532 19.1733 186.532 20.5142C186.532 21.8437 186.288 23.017 185.799 24.0341C185.31 25.0455 184.631 25.8381 183.762 26.4119C182.898 26.9858 181.901 27.2727 180.771 27.2727ZM180.771 25.8835C181.68 25.8835 182.45 25.6392 183.08 25.1506C183.711 24.6619 184.188 24.0114 184.512 23.1989C184.842 22.3864 185.006 21.4915 185.006 20.5142C185.006 19.5369 184.842 18.6392 184.512 17.821C184.188 17.0028 183.711 16.3466 183.08 15.8523C182.45 15.358 181.68 15.1108 180.771 15.1108C179.867 15.1108 179.097 15.358 178.461 15.8523C177.83 16.3466 177.35 17.0028 177.021 17.821C176.697 18.6392 176.535 19.5369 176.535 20.5142C176.535 21.4915 176.697 22.3864 177.021 23.1989C177.35 24.0114 177.83 24.6619 178.461 25.1506C179.092 25.6392 179.862 25.8835 180.771 25.8835Z" fill="#18171A"/>
<defs>
<clipPath id="clip0_1836_74016">
<rect width="113.906" height="24" fill="white" transform="translate(0 6)"/>
</clipPath>
</defs>
</svg>
