<svg width="16" height="16" viewBox="0 0 16 16" fill="none" xmlns="http://www.w3.org/2000/svg">
<path fill-rule="evenodd" clip-rule="evenodd" d="M0 8C0 3.58172 3.58172 0 8 0C12.4183 0 16 3.58172 16 8C16 12.4183 12.4183 16 8 16C3.58172 16 0 12.4183 0 8ZM11.8488 5.75617C12.0823 5.4715 12.0408 5.05143 11.7561 4.81792C11.4715 4.5844 11.0514 4.62587 10.8179 4.91054L6.94645 9.63001L5.17227 7.56552C4.9323 7.28628 4.51139 7.25444 4.23215 7.49442C3.9529 7.73439 3.92107 8.1553 4.16105 8.43454L6.45271 11.1012C6.5811 11.2506 6.76899 11.3356 6.96596 11.3333C7.16293 11.3311 7.34882 11.2418 7.47376 11.0895L11.8488 5.75617Z" fill="#00CC8F"/>
</svg>
